<?xml version="1.0" encoding="UTF-8" standalone="no"?>
<!-- Generator: Adobe Illustrator 28.4.1, SVG Export Plug-In . SVG Version: 6.00 Build 0)  -->

<svg
   version="1.1"
   id="Layer_1"
   x="0px"
   y="0px"
   viewBox="0 0 499.99999 500"
   xml:space="preserve"
   sodipodi:docname="favicon.svg"
   inkscape:version="1.3.2 (091e20e, 2023-11-25, custom)"
   width="500"
   height="500"
   xmlns:inkscape="http://www.inkscape.org/namespaces/inkscape"
   xmlns:sodipodi="http://sodipodi.sourceforge.net/DTD/sodipodi-0.dtd"
   xmlns="http://www.w3.org/2000/svg"
   xmlns:svg="http://www.w3.org/2000/svg"><defs
   id="defs22" /><sodipodi:namedview
   id="namedview22"
   pagecolor="#505050"
   bordercolor="#eeeeee"
   borderopacity="1"
   inkscape:showpageshadow="0"
   inkscape:pageopacity="0"
   inkscape:pagecheckerboard="0"
   inkscape:deskcolor="#505050"
   inkscape:zoom="0.64"
   inkscape:cx="73.4375"
   inkscape:cy="302.34375"
   inkscape:window-width="1920"
   inkscape:window-height="1009"
   inkscape:window-x="1912"
   inkscape:window-y="-8"
   inkscape:window-maximized="1"
   inkscape:current-layer="Layer_1" />
<style
   type="text/css"
   id="style1">
	.st0{fill:#FFFFFF;}
	.st1{fill:#082542;}
	.st2{fill:#02569B;}
	.st3{font-family:'Raleway-Black';}
	.st4{font-size:232.307px;}
	.st5{font-family:'Raleway-Medium';}
	.st6{font-size:100.8595px;}
</style>
<g
   id="g21"
   inkscape:export-filename="..\..\..\Downloads\favicon.svg"
   inkscape:export-xdpi="96"
   inkscape:export-ydpi="96"
   transform="matrix(0.51295384,0,0,0.51295384,-46.225849,-406.98871)">
	<path
   class="st0"
   d="m 160.09,1443.61 42.69,-131.74 16.59,-51.24 49.9,-153.99 205.86,-6.57 0.07,-0.23 160.58,-5.11 c 2.31,-0.08 4.57,-0.11 6.79,-0.11 23.25,0 43.47,4.02 60.35,11.97 l 4.59,-14.16 152.26,-4.86 c 2.18,-0.07 4.31,-0.1 6.42,-0.1 56.14,0 84.97,23.43 99.28,43.09 3.61,4.96 6.75,10.41 9.35,16.22 0.83,1.05 1.62,2.07 2.34,3.07 18.89,25.98 22.84,60.25 11.11,96.5 -3.76,11.63 -8.75,22.8 -14.82,33.19 -5.86,10.05 -12.85,19.5 -20.77,28.08 -8.18,8.91 -17.53,17.04 -27.76,24.13 -4.91,3.37 -9.82,6.43 -14.65,9.1 -3.96,2.21 -8.03,4.28 -12.04,6.12 l -9.27,4.25 h -0.66 c -7.01,2.77 -14.29,5.15 -21.68,7.1 -0.65,0.18 -1.3,0.35 -1.95,0.52 l -6.11,1.61 h -0.71 c -12.48,2.72 -25.45,4.32 -38.55,4.74 l -10.27,0.33 -14.24,43.94 -48.86,46.35 -139.24,4.47 0.01,-0.03 -3.87,0.12 -3.29,0.12 -88.27,2.79 1.76,-5.43 -7.23,5.48 -15.86,0.65 -105.66,3.39 -10.93,-19.3 -11.01,0.37 5.76,-17.88 18.18,-56.14 -14.5,0.46 -17.92,55.31 -52.18,40.03 -123.11,3.9 z"
   id="path1" />
	<path
   class="st1"
   d="m 966.96,1157.25 c -0.93,-1.28 -1.94,-2.57 -3.01,-3.87 -2.3,-5.44 -5.17,-10.61 -8.67,-15.41 -12.58,-17.3 -38.25,-37.91 -89.1,-37.91 -1.98,0 -3.98,0.03 -6.02,0.1 l -143.41,4.58 -6.64,20.48 c -14.39,-10.01 -35.8,-18.01 -67.55,-18.01 -2.09,0 -4.22,0.03 -6.39,0.1 l -151.71,4.83 -0.07,0.23 -205.88,6.57 -47.17,145.57 -16.59,51.25 -40.92,126.27 11.68,19.29 v 0 l 111.71,-3.54 45.86,-35.18 19.44,-60.01 35.44,-1.13 4.25,-0.13 1.53,-0.05 -0.33,1.03 -23.35,72.12 v 0 0 l -0.27,0.85 0.74,-0.02 10.94,19.31 v 0 l 97.95,-3.14 11.91,-0.49 26.91,-20.42 6.94,-0.22 -6.44,19.86 70.33,-2.22 3.35,-0.12 21.33,-0.67 -0.01,0.02 116.98,-3.76 43.06,-40.85 15.98,-49.31 18.39,-0.59 0.72,-0.02 c 12.82,-0.41 25.44,-2.01 37.58,-4.75 h 0.46 l 4.61,-1.21 c 0.6,-0.15 1.19,-0.31 1.78,-0.47 7.74,-2.03 15.29,-4.56 22.54,-7.53 h 0.35 l 6.78,-3.1 c 3.72,-1.7 7.52,-3.64 11.19,-5.68 4.47,-2.48 9.01,-5.29 13.58,-8.44 9.47,-6.56 18.13,-14.09 25.68,-22.32 7.3,-7.91 13.75,-16.64 19.15,-25.91 5.62,-9.6 10.23,-19.94 13.71,-30.71 10.46,-32.36 7.15,-62.63 -9.32,-85.27 z"
   id="path2" />
	<path
   class="st2"
   d="m 303.61,1152.31 -39.77,122.72 -16.59,51.26 5.59,-12.35 c 0.68,-0.79 1.22,-1.35 1.65,-1.67 -0.22,1.58 -0.47,3.07 -0.76,4.4 -1.11,4.67 -2.66,10.37 -4.64,17.13 -0.04,0.32 0.02,0.47 0.09,0.45 0.9,-0.47 1.46,-0.59 1.69,-0.43 0.09,0.05 0.14,0.18 0.2,0.36 0.05,0.36 0.09,1.04 0.14,2.09 0,0.09 0.05,0.16 0.14,0.23 0.07,0.07 0.25,0.02 0.52,-0.22 l 3.07,-3.22 c 4.05,-4.67 7.32,-8.38 9.82,-11.16 l 2.41,-2.03 c -2.54,15.39 -3.47,24.68 -2.82,27.85 l 17.69,-35.04 4.31,-6.11 c 1.33,-1.58 2.41,-2.71 3.29,-3.47 -1.13,4.49 -1.8,7.52 -2,8.99 l -1.65,15.8 c -0.07,0.83 -0.04,1.06 0.09,0.76 0.16,-0.27 0.65,-1.49 1.44,-3.67 1.87,-6.53 3.24,-10.84 4.08,-12.89 l 10.48,-24.25 c 3.24,-4.46 6.11,-9.46 8.67,-14.94 0.27,0.23 0.59,0.63 0.97,1.22 0.79,1.2 1.58,2.68 2.32,4.48 0.07,0.09 0.13,0.13 0.2,0.07 l 0.74,-4.24 0.5,-1.89 c 4.1,7.26 9.71,14.38 16.86,21.36 0.74,0.52 1.08,0.45 0.99,-0.14 -1.17,-3.85 -1.85,-7.51 -2.09,-11.04 0.07,0.04 0.14,0.05 0.22,0.13 3.43,3.06 6.31,6.17 8.61,9.28 1.24,1.64 2.43,3.34 3.54,5.09 0.04,0.07 0.09,0.13 0.13,0.22 l 0.63,1.11 c 0.56,1.31 1.13,2.7 1.74,4.13 l 3.65,6.49 35.49,-1.13 4.19,-0.13 14,-0.45 7.44,-0.23 34.25,-26.34 9.69,-29.92 -111.14,3.54 16.02,-49.39 97.69,-3.13 28.19,-22.8 10.72,-33.03 z"
   id="path3" />
	<path
   class="st2"
   d="m 637.26,1141.44 -127.7,4.06 -63.16,194.97 h -0.02 l -6.63,20.51 1.76,1.82 c 0.81,0.81 1.56,1.53 2.25,2.21 4.57,7.96 9.6,15.59 15.23,22.78 0.2,0.36 0.41,0.72 0.59,1.08 1.67,3.22 3.43,6.38 5.27,9.47 l 6.2,-0.2 2.8,-0.09 2.79,-0.09 -4.14,-4.58 c -4.19,-5.18 -6.89,-8.59 -8.09,-10.23 -0.18,-0.23 -0.38,-0.49 -0.56,-0.72 l -0.04,-0.07 c -3.51,-6.26 -6.51,-11.33 -9.01,-15.19 -0.43,-4.19 -0.63,-10.66 -0.54,-19.49 0.11,-0.38 0.56,-0.29 1.37,0.2 l 5.91,6.74 3.85,-10.98 c 7.25,7.01 11.79,12.91 13.68,17.67 2.61,-6.27 4.71,-12.89 6.33,-19.79 -0.31,9.26 -0.13,16.36 0.49,21.3 0.95,-6.44 3.36,-14.11 7.3,-23.07 l 2.68,-14.56 6.98,9.8 10.71,18.93 c 0.27,0.18 0.58,0.32 0.9,0.41 l 3.54,-10.93 13.66,-42.18 26.63,-0.84 c 3.96,-0.13 7.44,-0.07 10.53,0.14 15.16,1.15 20.46,6.54 20.55,15.62 0,1.58 -0.31,3.24 -0.84,4.93 0.32,-0.14 0.65,-0.27 0.95,-0.45 0.56,-0.04 0.92,0.05 1.06,0.22 l -3.47,9.51 c 8.02,-7.64 14.96,-13.09 20.85,-16.36 -4.69,18.79 -6.4,31.25 -5.11,37.47 l 9.67,-26.52 17.89,-39.48 c 0.68,-0.79 1.22,-1.35 1.64,-1.69 -0.22,1.58 -0.45,3.09 -0.76,4.42 -1.1,4.66 -2.66,10.37 -4.64,17.13 -0.02,0.31 0.02,0.45 0.11,0.43 0.9,-0.45 1.46,-0.58 1.69,-0.41 0.07,0.04 0.14,0.16 0.18,0.36 0.07,0.36 0.11,1.04 0.14,2.09 0,0.07 0.07,0.16 0.14,0.22 0.09,0.09 0.25,0.04 0.52,-0.2 l 3.09,-3.24 c 4.03,-4.66 7.3,-8.36 9.8,-11.16 l 2.43,-2.01 c -2.55,15.39 -3.49,24.68 -2.84,27.85 l 17.71,-35.06 1.15,-1.62 c -3.47,-6.44 -8.74,-10.19 -14.42,-12.19 2.39,-0.92 4.89,-2 7.42,-3.24 2.23,-1.08 4.49,-2.28 6.78,-3.61 14.72,-8.63 30.17,-22.67 39.8,-43.85 1.56,-3.42 2.97,-7.01 4.19,-10.79 12.46,-38.31 -6.54,-69.39 -67.24,-67.45 z m -10.64,78.29 c -5.54,17.1 -18.03,27.69 -43.18,28.5 l -34.95,1.11 17.58,-54.29 35.29,-1.13 c 23.08,-0.74 30.76,8.84 25.26,25.81 z"
   id="path4" />
	<path
   class="st2"
   d="m 861.25,1134.28 -119.41,3.81 -31.41,96.94 -7.46,23.01 -21.38,66.02 -4.78,14.74 c 1.24,-0.41 2.25,-0.83 2.97,-1.28 l 4.96,-3.6 c 4.19,-2.3 7.48,-4.26 9.87,-5.91 l 0.88,-0.63 1.62,-1.35 2.98,-1.15 7.87,-6.99 0.74,-0.52 -0.05,-0.09 18.55,-16.47 c 1.42,-1.19 2.57,-2.05 3.51,-2.64 l 0.58,2.37 c 0.23,0.92 0.34,1.78 0.32,2.66 l -0.61,11.27 -0.18,1.1 c -0.52,2.8 -0.95,4.8 -1.37,6 l -2.23,6.38 c -1.1,1.91 -1.58,2.98 -1.44,3.24 0,0.09 0.07,0.22 0.22,0.36 0.22,-0.13 0.43,-0.31 0.59,-0.52 0.63,-0.7 1.74,-2.16 3.29,-4.31 0.84,-1.47 1.53,-2.66 2.09,-3.52 0,0.04 -0.04,0.07 -0.04,0.09 l -0.02,0.11 0.09,-0.18 c 0.05,-0.13 0.11,-0.25 0.16,-0.36 0.04,-0.04 0.04,-0.09 0.05,-0.13 0.49,-0.72 0.84,-1.19 1.04,-1.37 l 1.56,-3.15 c 0.72,-0.99 1.42,-2.09 2.1,-3.29 l 5.47,-7.78 2.86,-2.09 0.81,-0.59 c 0.14,-0.11 0.31,-0.2 0.47,-0.29 0.34,-0.11 0.7,-0.22 1.02,-0.34 0.56,0.02 0.9,0.14 1.02,0.32 l -1.65,3.33 -2.86,5.74 c 1.55,-1.17 3.06,-2.28 4.53,-3.33 1.83,-1.31 3.61,-2.52 5.32,-3.61 1.28,-0.84 2.53,-1.62 3.76,-2.34 1.78,-1.06 3.49,-2 5.12,-2.8 v -0.02 l 0.2,-0.58 1.06,-0.04 h 0.02 l 2.16,-0.07 h 0.02 l 10.03,-0.31 h 0.02 l 9.35,-15.62 6.56,-10.93 c 0.77,-0.7 1.38,-1.2 1.83,-1.47 -0.4,1.55 -0.81,3 -1.26,4.3 -1.19,3.25 -2.66,7.05 -4.42,11.34 -0.68,1.64 -1.4,3.34 -2.16,5.14 -0.05,0.31 -0.04,0.47 0.05,0.45 0.95,-0.36 1.51,-0.41 1.73,-0.22 0.07,0.05 0.13,0.18 0.14,0.36 0.02,0.36 -0.02,1.06 -0.09,2.09 -0.02,0.09 0.04,0.18 0.13,0.25 0.07,0.09 0.23,0.05 0.54,-0.14 l 3.42,-2.86 c 0.34,-0.31 0.67,-0.61 0.99,-0.9 4.1,-3.76 7.46,-6.76 10.05,-9.06 l 2.62,-1.73 c -2.16,7.53 -3.74,13.57 -4.75,18.14 0,0.02 0,0.05 -0.02,0.07 h 0.11 l 4.76,-0.16 15.48,-23.52 5,-5.56 c 1.49,-1.42 2.7,-2.43 3.67,-3.07 -1.64,4.33 -2.64,7.26 -3.02,8.7 l -3.45,15.51 c -0.18,0.79 -0.16,1.04 0,0.76 0.2,-0.25 0.81,-1.42 1.85,-3.49 2.61,-6.27 4.46,-10.39 5.52,-12.33 l 13.21,-22.89 c 3.72,-4.06 7.14,-8.7 10.32,-13.84 0.23,0.25 0.5,0.68 0.81,1.31 0.65,1.29 1.26,2.84 1.8,4.71 0.05,0.11 0.13,0.14 0.18,0.11 l 1.24,-4.14 0.7,-1.83 c 3.25,7.69 8,15.41 14.31,23.17 0.67,0.59 1.01,0.58 0.99,-0.04 -0.72,-3.97 -0.97,-7.69 -0.79,-11.2 0.05,0.04 0.13,0.07 0.18,0.14 3.07,3.43 5.57,6.85 7.5,10.21 1.04,1.76 2.03,3.6 2.95,5.45 0.02,0.07 0.05,0.14 0.09,0.23 l 0.49,1.19 c 0.41,1.37 0.84,2.79 1.28,4.3 l 0.41,0.97 c 7.26,-5.03 13.99,-10.82 20.03,-17.4 11.06,-12.01 19.87,-26.63 25.47,-43.97 16.07,-49.58 -12.72,-80.22 -70.84,-78.37 z m -4.26,81.77 c -4.3,13.23 -12.94,21.83 -24.04,26.55 h -0.02 c -5.95,2.55 -12.62,3.99 -19.69,4.44 -0.83,0.05 -1.65,0.11 -2.5,0.13 l -13.45,0.43 -17.33,0.56 19.49,-60.17 30.99,-0.99 c 15.19,-0.49 25.96,3.56 28.1,14.06 0.84,4 0.39,8.97 -1.55,14.99 z"
   id="path5" />
	<g
   id="g13">
		<path
   class="st0"
   d="m 502.86,1335 -6.98,-9.8 -2.68,14.56 c -3.94,8.95 -6.35,16.63 -7.3,23.07 -0.61,-4.94 -0.79,-12.05 -0.49,-21.3 -1.62,6.9 -3.72,13.52 -6.33,19.79 -1.89,-4.76 -6.44,-10.66 -13.68,-17.67 l -3.85,10.98 -5.91,-6.74 c -0.81,-0.49 -1.26,-0.58 -1.37,-0.2 -0.09,8.83 0.11,15.3 0.54,19.49 2.5,3.87 5.5,8.94 9.01,15.19 l 0.04,0.07 c 0.18,0.23 0.38,0.49 0.56,0.72 1.2,1.64 3.9,5.05 8.09,10.23 l 4.14,4.58 0.9,-0.04 24.83,-18.84 0.02,-0.02 5.38,-4.06 1.96,-6.06 4.75,-14.62 c -0.32,-0.09 -0.63,-0.23 -0.9,-0.41 z"
   id="path6" />
		<g
   id="g12">
			<path
   class="st0"
   d="m 793.12,1291.92 c -0.32,0.29 -0.65,0.59 -0.99,0.9 l -3.42,2.86 c -0.31,0.2 -0.47,0.23 -0.54,0.14 -0.09,-0.07 -0.14,-0.16 -0.13,-0.25 0.07,-1.02 0.11,-1.73 0.09,-2.09 -0.02,-0.18 -0.07,-0.31 -0.14,-0.36 -0.22,-0.2 -0.77,-0.14 -1.73,0.22 -0.09,0.02 -0.11,-0.14 -0.05,-0.45 0.75,-1.8 1.47,-3.51 2.16,-5.14 1.76,-4.3 3.24,-8.09 4.42,-11.34 0.45,-1.29 0.86,-2.75 1.26,-4.3 -0.45,0.27 -1.06,0.77 -1.83,1.47 l -6.56,10.93 -9.35,15.62 24.72,-0.79 c 0.02,-0.02 0.02,-0.05 0.02,-0.07 1.01,-4.57 2.59,-10.61 4.75,-18.14 l -2.62,1.73 c -2.6,2.3 -5.96,5.31 -10.06,9.06 z"
   id="path7" />
			<path
   class="st0"
   d="m 459,1387.8 c -5.63,-7.19 -10.66,-14.81 -15.23,-22.78 -0.68,-0.68 -1.44,-1.4 -2.25,-2.21 l -1.76,-1.82 -3.83,11.79 -1.53,4.73 -7.14,22.04 37.59,-1.2 c -1.83,-3.09 -3.6,-6.26 -5.27,-9.47 -0.17,-0.36 -0.39,-0.72 -0.58,-1.08 z"
   id="path8" />
			<path
   class="st0"
   d="m 664.88,1303.19 c 0.05,-2.03 0,-3.96 -0.14,-5.77 -0.11,-1.51 -0.27,-2.91 -0.52,-4.28 v -0.04 c -0.68,-4.14 -1.87,-7.6 -3.45,-10.54 l -1.15,1.62 -17.71,35.06 c -0.65,-3.16 0.29,-12.46 2.84,-27.85 l -2.43,2.01 c -2.5,2.8 -5.77,6.51 -9.8,11.16 l -3.09,3.24 c -0.27,0.23 -0.43,0.29 -0.52,0.2 -0.07,-0.05 -0.14,-0.14 -0.14,-0.22 -0.04,-1.04 -0.07,-1.73 -0.14,-2.09 -0.04,-0.2 -0.11,-0.32 -0.18,-0.36 -0.23,-0.16 -0.79,-0.04 -1.69,0.41 -0.09,0.02 -0.13,-0.13 -0.11,-0.43 1.98,-6.76 3.54,-12.48 4.64,-17.13 0.31,-1.33 0.54,-2.84 0.76,-4.42 -0.41,0.34 -0.95,0.9 -1.64,1.69 l -17.89,39.48 -9.67,26.52 c -1.29,-6.22 0.41,-18.68 5.11,-37.47 -5.9,3.27 -12.84,8.72 -20.85,16.36 l 3.47,-9.51 c -0.14,-0.16 -0.5,-0.25 -1.06,-0.22 -0.31,0.18 -0.63,0.31 -0.95,0.45 v 0.02 l -18.86,58.18 -1.19,3.69 -3.96,12.21 15.93,-0.5 0.65,-0.02 5.05,-0.16 3.51,-0.13 19.45,-0.61 35.31,-24.85 19.42,-59.92 c 0.6,-1.97 0.94,-3.91 1,-5.78 z"
   id="path9" />
			<path
   class="st0"
   d="m 886.19,1273.08 c -0.43,-1.51 -0.86,-2.93 -1.28,-4.3 l -0.49,-1.19 c -0.04,-0.09 -0.07,-0.16 -0.09,-0.23 -0.92,-1.85 -1.91,-3.69 -2.95,-5.45 -1.92,-3.36 -4.42,-6.78 -7.5,-10.21 -0.05,-0.07 -0.13,-0.11 -0.18,-0.14 -0.18,3.51 0.07,7.23 0.79,11.2 0.02,0.61 -0.32,0.63 -0.99,0.04 -6.31,-7.77 -11.06,-15.48 -14.31,-23.17 l -0.7,1.83 -1.24,4.14 c -0.05,0.04 -0.13,0 -0.18,-0.11 -0.54,-1.87 -1.15,-3.42 -1.8,-4.71 -0.31,-0.63 -0.58,-1.06 -0.81,-1.31 -3.18,5.14 -6.6,9.78 -10.32,13.84 l -13.21,22.89 c -1.06,1.94 -2.91,6.06 -5.52,12.33 -1.04,2.07 -1.65,3.24 -1.85,3.49 -0.16,0.29 -0.18,0.04 0,-0.76 l 3.45,-15.51 c 0.38,-1.44 1.38,-4.37 3.02,-8.7 -0.97,0.65 -2.18,1.65 -3.67,3.07 l -5,5.56 -15.48,23.52 h 0.2 c 11.74,-0.38 23.41,-1.94 34.68,-4.76 h 0.02 c 0.61,-0.16 1.22,-0.31 1.83,-0.49 8.41,-2.19 16.61,-5.11 24.41,-8.74 h 0.02 c 3.02,-1.38 5.97,-2.89 8.86,-4.51 3.67,-2.03 7.23,-4.26 10.68,-6.63 z"
   id="path10" />
			<path
   class="st0"
   d="m 753.93,1306.29 c -1.71,1.1 -3.49,2.3 -5.32,3.61 -1.47,1.04 -2.98,2.16 -4.53,3.33 l 2.86,-5.74 1.65,-3.33 c -0.13,-0.18 -0.47,-0.31 -1.02,-0.32 -0.32,0.13 -0.68,0.23 -1.02,0.34 -0.16,0.09 -0.32,0.18 -0.47,0.29 l -0.81,0.59 -2.86,2.09 -5.47,7.78 c -0.68,1.2 -1.38,2.3 -2.1,3.29 l -1.56,3.15 c -0.2,0.18 -0.56,0.65 -1.04,1.37 -0.02,0.04 -0.02,0.09 -0.05,0.13 -0.05,0.11 -0.11,0.23 -0.16,0.36 l -0.09,0.18 0.02,-0.11 c 0,-0.02 0.04,-0.05 0.04,-0.09 -0.56,0.86 -1.24,2.05 -2.09,3.52 -1.55,2.16 -2.66,3.61 -3.29,4.31 -0.16,0.22 -0.38,0.4 -0.59,0.52 -0.14,-0.14 -0.22,-0.27 -0.22,-0.36 -0.14,-0.25 0.34,-1.33 1.44,-3.24 l 2.23,-6.38 c 0.41,-1.2 0.84,-3.2 1.37,-6 l 0.18,-1.1 0.61,-11.27 c 0.02,-0.88 -0.09,-1.74 -0.32,-2.66 l -0.58,-2.37 c -0.93,0.59 -2.09,1.46 -3.51,2.64 l -18.55,16.47 0.05,0.09 -0.74,0.52 -7.87,6.99 -2.98,1.15 -1.62,1.35 -0.88,0.63 c -2.39,1.65 -5.68,3.61 -9.87,5.91 l -4.96,3.6 c -0.72,0.45 -1.73,0.86 -2.97,1.28 l -17.28,53.34 55.43,-1.78 27.33,-25.92 14.11,-43.54 0.5,-1.56 3.58,-11.06 2.32,-7.14 c -1.64,0.81 -3.34,1.74 -5.12,2.8 -1.25,0.72 -2.51,1.49 -3.78,2.34 z"
   id="path11" />
			<path
   class="st0"
   d="m 344.39,1298.52 -0.63,-1.11 c -0.04,-0.09 -0.09,-0.14 -0.13,-0.22 -1.11,-1.74 -2.3,-3.45 -3.54,-5.09 -2.3,-3.11 -5.18,-6.22 -8.61,-9.28 -0.07,-0.07 -0.14,-0.09 -0.22,-0.13 0.23,3.52 0.92,7.19 2.09,11.04 0.09,0.59 -0.25,0.67 -0.99,0.14 -7.16,-6.98 -12.76,-14.1 -16.86,-21.36 l -0.5,1.89 -0.74,4.24 c -0.07,0.05 -0.13,0.02 -0.2,-0.07 -0.74,-1.8 -1.53,-3.27 -2.32,-4.48 -0.38,-0.59 -0.7,-0.99 -0.97,-1.22 -2.55,5.48 -5.43,10.48 -8.67,14.94 l -10.48,24.25 c -0.84,2.05 -2.21,6.36 -4.08,12.89 -0.79,2.18 -1.28,3.4 -1.44,3.67 -0.13,0.31 -0.16,0.07 -0.09,-0.75 l 1.65,-15.8 c 0.2,-1.47 0.86,-4.49 2,-8.99 -0.88,0.76 -1.96,1.89 -3.29,3.47 l -4.31,6.11 -17.69,35.04 c -0.65,-3.16 0.29,-12.46 2.82,-27.85 l -2.41,2.03 c -2.5,2.79 -5.77,6.49 -9.82,11.16 l -3.07,3.22 c -0.27,0.23 -0.45,0.29 -0.52,0.22 -0.09,-0.07 -0.14,-0.14 -0.14,-0.23 -0.05,-1.04 -0.09,-1.73 -0.14,-2.09 -0.05,-0.18 -0.11,-0.31 -0.2,-0.36 -0.23,-0.16 -0.79,-0.04 -1.69,0.43 -0.07,0.02 -0.13,-0.13 -0.09,-0.45 1.98,-6.76 3.52,-12.46 4.64,-17.13 0.29,-1.33 0.54,-2.82 0.76,-4.4 -0.43,0.32 -0.97,0.88 -1.65,1.67 l -5.59,12.35 -25.94,80.06 52.17,-1.65 28.71,-22.02 23.57,-72.74 24.02,-0.77 -3.65,-6.49 c -0.63,-1.44 -1.21,-2.83 -1.76,-4.14 z"
   id="path12" />
		</g>
	</g>
	<g
   id="g20">
		<path
   class="st1"
   d="m 395.78,1299.01 -0.58,0.02 c -2.1,0.36 -3.49,1.08 -4.17,2.23 -0.41,0.92 -0.92,3.15 -1.56,6.63 l 14,-0.45 -7.05,-8.41 z"
   id="path13" />
		<g
   id="g19">
			<g
   id="g18">
				<path
   class="st1"
   d="m 385.27,1308.01 -35.49,1.13 -3.65,-6.49 c -0.61,-1.44 -1.19,-2.82 -1.74,-4.13 l -0.63,-1.11 c -0.04,-0.09 -0.09,-0.14 -0.13,-0.22 -1.11,-1.74 -2.3,-3.45 -3.54,-5.09 -2.3,-3.11 -5.18,-6.22 -8.61,-9.28 -0.07,-0.07 -0.14,-0.09 -0.22,-0.13 0.23,3.52 0.92,7.19 2.09,11.04 0.09,0.59 -0.25,0.67 -0.99,0.14 -7.16,-6.98 -12.76,-14.09 -16.86,-21.36 l -0.5,1.89 -0.74,4.24 c -0.07,0.05 -0.13,0.02 -0.2,-0.07 -0.74,-1.8 -1.53,-3.27 -2.32,-4.48 -0.38,-0.59 -0.7,-0.99 -0.97,-1.22 -2.55,5.48 -5.43,10.48 -8.67,14.94 l -10.48,24.25 c -0.84,2.05 -2.21,6.36 -4.08,12.89 -0.79,2.18 -1.28,3.4 -1.44,3.67 -0.13,0.31 -0.16,0.07 -0.09,-0.76 l 1.65,-15.8 c 0.2,-1.47 0.86,-4.49 2,-8.99 -0.88,0.76 -1.96,1.89 -3.29,3.47 l -4.31,6.11 -17.69,35.04 c -0.65,-3.16 0.29,-12.46 2.82,-27.85 l -2.41,2.03 c -2.5,2.79 -5.77,6.49 -9.82,11.16 l -3.07,3.22 c -0.27,0.23 -0.45,0.29 -0.52,0.22 -0.09,-0.07 -0.14,-0.14 -0.14,-0.23 -0.05,-1.04 -0.09,-1.73 -0.14,-2.09 -0.05,-0.18 -0.11,-0.31 -0.2,-0.36 -0.23,-0.16 -0.79,-0.04 -1.69,0.43 -0.07,0.02 -0.13,-0.13 -0.09,-0.45 1.98,-6.76 3.52,-12.46 4.64,-17.13 0.29,-1.33 0.54,-2.82 0.76,-4.4 -0.43,0.32 -0.97,0.88 -1.65,1.67 l -5.59,12.35 16.59,-51.26 c 1.4,1.11 2.89,4.28 4.48,9.55 0.2,0.25 0.83,0.34 1.89,0.23 0.23,0.05 0.56,0.4 1.01,1.01 0.58,0.81 1.38,2.68 2.39,5.59 l 0.83,1.53 c 0.68,1.24 2,3.07 3.97,5.48 0.45,0.36 0.85,0.49 1.22,0.36 l 9.8,-19.7 c 0.79,-1.47 1.56,-2.84 2.28,-4.17 l 1.71,-4.05 2.39,-4.73 c 0.49,-1.28 1.08,-2.73 1.74,-4.42 0.34,-0.92 0.7,-1.78 1.06,-2.64 1.1,-2.7 2.37,-5.81 3.83,-9.35 0.49,-1.22 1.17,-3.4 2.03,-6.49 2.8,-5.36 4.82,-8.38 6.09,-9.03 l 0.43,-0.13 c 0.47,0.25 1.15,0.92 2.01,2.05 0.52,0.54 1.98,2.68 4.39,6.4 0.29,0.31 0.79,0.47 1.53,0.5 0.14,0.07 0.34,0.23 0.58,0.52 l 8.72,12.1 c 1.82,2.95 3.42,5.64 4.84,8.14 l 14.17,18.7 0.13,0.23 c -0.05,-1.22 -0.13,-2.48 -0.13,-3.74 -0.02,-0.79 0.36,-3.45 1.11,-7.98 0.07,-0.41 0.2,-0.74 0.34,-0.93 0.2,-0.22 0.34,-0.32 0.4,-0.29 l 0.18,-0.04 c 0.25,0 0.45,0.07 0.65,0.2 l 2.53,2.01 c 0.54,0.49 2.5,2.68 5.9,6.54 l 5.97,5.16 c 2.79,3.56 4.75,6.18 5.88,7.91 l 4.24,3.99 z"
   id="path14" />
				<path
   class="st1"
   d="m 518.02,1343.41 -3.54,10.93 c -0.32,-0.09 -0.63,-0.23 -0.9,-0.41 l -10.72,-18.93 -6.98,-9.8 -2.68,14.56 c -3.94,8.95 -6.35,16.63 -7.3,23.07 -0.61,-4.94 -0.79,-12.05 -0.49,-21.3 -1.62,6.9 -3.72,13.52 -6.33,19.79 -1.89,-4.76 -6.44,-10.66 -13.68,-17.67 l -3.85,10.98 -5.91,-6.74 c -0.81,-0.49 -1.26,-0.58 -1.37,-0.2 -0.09,8.83 0.11,15.3 0.54,19.49 2.5,3.87 5.5,8.94 9.01,15.19 l 0.04,0.07 c 0.18,0.23 0.38,0.49 0.56,0.72 1.2,1.64 3.9,5.05 8.09,10.23 l 4.14,4.58 -2.79,0.09 c -0.09,-0.11 -0.2,-0.18 -0.29,-0.27 -1.44,-1.35 -2.86,-2.68 -4.26,-4.03 0.52,1.46 1.11,2.91 1.74,4.39 l -6.2,0.2 c -1.83,-3.09 -3.6,-6.26 -5.27,-9.47 -0.18,-0.36 -0.4,-0.72 -0.59,-1.08 -5.63,-7.19 -10.66,-14.81 -15.23,-22.78 -0.68,-0.68 -1.44,-1.4 -2.25,-2.21 l -1.76,-1.82 6.63,-20.51 h 0.02 c 2.12,-1.67 4.33,-3.69 6.65,-6.02 5.93,-6.4 9.62,-10.66 11.04,-12.71 3.58,2.19 6.6,6.33 9.03,12.37 0.38,0.34 0.88,0.31 1.55,-0.13 1.92,-1.56 3.99,-3.7 6.27,-6.42 l 12.8,-20.78 c 0.04,-0.18 0.41,-0.31 1.11,-0.38 h 0.27 c 2.41,1.6 4.46,3.79 6.17,6.56 l 9.58,22.01 c 0.28,0.77 2.65,3.59 7.15,8.43 z"
   id="path15" />
				<path
   class="st1"
   d="m 660.76,1282.57 -1.15,1.62 -17.71,35.06 c -0.65,-3.16 0.29,-12.46 2.84,-27.85 l -2.43,2.01 c -2.5,2.8 -5.77,6.51 -9.8,11.16 l -3.09,3.24 c -0.27,0.23 -0.43,0.29 -0.52,0.2 -0.07,-0.05 -0.14,-0.14 -0.14,-0.22 -0.04,-1.04 -0.07,-1.73 -0.14,-2.09 -0.04,-0.2 -0.11,-0.32 -0.18,-0.36 -0.23,-0.16 -0.79,-0.04 -1.69,0.41 -0.09,0.02 -0.13,-0.13 -0.11,-0.43 1.98,-6.76 3.54,-12.48 4.64,-17.13 0.31,-1.33 0.54,-2.84 0.76,-4.42 -0.41,0.34 -0.95,0.9 -1.64,1.69 l -17.89,39.48 -9.67,26.52 c -1.29,-6.22 0.41,-18.68 5.11,-37.47 -5.9,3.27 -12.84,8.72 -20.85,16.36 l 3.47,-9.51 c -0.14,-0.16 -0.5,-0.25 -1.06,-0.22 -0.31,0.18 -0.63,0.31 -0.95,0.45 0.54,-1.69 0.85,-3.34 0.85,-4.93 -0.09,-9.08 -5.39,-14.47 -20.55,-15.62 l 8.99,-10.07 c 0.83,-0.54 1.78,-0.11 2.8,1.33 l 7.42,12.57 c 1.83,0.41 4.89,-0.88 9.13,-3.87 2.45,1.64 4.87,1.64 7.35,0.05 11.43,-18 19.76,-30.31 24.99,-36.95 5.52,-8.45 8.94,-14.02 10.27,-16.72 0.31,-0.45 0.56,-0.68 0.79,-0.74 h 0.09 c 1.6,0.49 3.33,3.79 5.18,9.96 0.22,0.25 0.83,0.32 1.89,0.23 0.23,0.05 0.58,0.4 1.01,0.99 0.59,0.81 1.4,2.7 2.39,5.61 l 0.84,1.51 c 0.4,0.72 0.97,1.62 1.78,2.7 -2.53,1.24 -5.03,2.32 -7.42,3.24 5.67,2.02 10.94,5.78 14.4,12.21 z"
   id="path16" />
				<path
   class="st1"
   d="m 697.05,1215.08 3.31,4.6 c -9.64,21.18 -25.08,35.22 -39.8,43.85 L 667,1250.6 c 0.79,-1.47 1.55,-2.86 2.28,-4.19 l 1.71,-4.03 2.37,-4.73 c 0.5,-1.28 1.08,-2.73 1.74,-4.42 0.36,-0.92 0.72,-1.8 1.06,-2.64 1.11,-2.71 2.37,-5.81 3.83,-9.35 0.49,-1.22 1.17,-3.4 2.05,-6.49 2.79,-5.36 4.8,-8.38 6.08,-9.03 l 0.43,-0.13 c 0.47,0.25 1.15,0.92 2.03,2.05 0.52,0.54 1.98,2.68 4.37,6.38 0.29,0.32 0.79,0.49 1.55,0.52 0.14,0.09 0.32,0.26 0.55,0.54 z"
   id="path17" />
				<path
   class="st1"
   d="m 906.63,1256.65 c -6.04,6.58 -12.76,12.37 -20.03,17.4 l -0.41,-0.97 c -0.43,-1.51 -0.86,-2.93 -1.28,-4.3 l -0.49,-1.19 c -0.04,-0.09 -0.07,-0.16 -0.09,-0.23 -0.92,-1.85 -1.91,-3.69 -2.95,-5.45 -1.92,-3.36 -4.42,-6.78 -7.5,-10.21 -0.05,-0.07 -0.13,-0.11 -0.18,-0.14 -0.18,3.51 0.07,7.23 0.79,11.2 0.02,0.61 -0.32,0.63 -0.99,0.04 -6.31,-7.77 -11.06,-15.48 -14.31,-23.17 l -0.7,1.83 -1.24,4.13 c -0.05,0.04 -0.13,0 -0.18,-0.11 -0.54,-1.87 -1.15,-3.42 -1.8,-4.71 -0.31,-0.63 -0.58,-1.06 -0.81,-1.31 -3.18,5.14 -6.6,9.78 -10.32,13.84 l -13.21,22.89 c -1.06,1.94 -2.91,6.06 -5.52,12.33 -1.04,2.07 -1.65,3.24 -1.85,3.49 -0.16,0.29 -0.18,0.04 0,-0.75 l 3.45,-15.52 c 0.38,-1.44 1.38,-4.37 3.02,-8.7 -0.97,0.65 -2.18,1.65 -3.67,3.07 l -5,5.56 -15.48,23.52 -4.76,0.16 h -0.11 c 0.02,-0.02 0.02,-0.05 0.02,-0.07 1.01,-4.57 2.59,-10.61 4.75,-18.14 l -2.62,1.73 c -2.59,2.3 -5.95,5.3 -10.05,9.06 -0.32,0.29 -0.65,0.59 -0.99,0.9 l -3.42,2.86 c -0.31,0.2 -0.47,0.23 -0.54,0.14 -0.09,-0.07 -0.14,-0.16 -0.13,-0.25 0.07,-1.02 0.11,-1.73 0.09,-2.09 -0.02,-0.18 -0.07,-0.31 -0.14,-0.36 -0.22,-0.2 -0.77,-0.14 -1.73,0.22 -0.09,0.02 -0.11,-0.14 -0.05,-0.45 0.75,-1.8 1.47,-3.51 2.16,-5.14 1.76,-4.3 3.24,-8.09 4.42,-11.34 0.45,-1.29 0.86,-2.75 1.26,-4.3 -0.45,0.27 -1.06,0.77 -1.83,1.47 l -6.56,10.93 -9.35,15.62 h -0.02 l -10.03,0.31 c 0.13,-0.36 0.25,-0.72 0.4,-1.08 -0.83,0.34 -1.69,0.74 -2.57,1.15 h -0.02 c -0.41,0.2 -0.83,0.41 -1.26,0.61 v 0.02 c -1.64,0.81 -3.34,1.74 -5.12,2.8 -1.22,0.72 -2.48,1.49 -3.76,2.34 -1.71,1.1 -3.49,2.3 -5.32,3.61 -1.47,1.04 -2.98,2.16 -4.53,3.33 l 2.86,-5.73 1.65,-3.33 c -0.13,-0.18 -0.47,-0.31 -1.02,-0.32 -0.32,0.13 -0.68,0.23 -1.02,0.34 -0.16,0.09 -0.32,0.18 -0.47,0.29 l -0.81,0.59 -2.86,2.09 -5.47,7.78 c -0.68,1.2 -1.38,2.3 -2.1,3.29 l -1.56,3.15 c -0.2,0.18 -0.56,0.65 -1.04,1.37 -0.02,0.04 -0.02,0.09 -0.05,0.13 -0.05,0.11 -0.11,0.23 -0.16,0.36 l -0.09,0.18 0.02,-0.11 c 0,-0.02 0.04,-0.05 0.04,-0.09 -0.56,0.86 -1.24,2.05 -2.09,3.52 -1.55,2.16 -2.66,3.61 -3.29,4.31 -0.16,0.22 -0.38,0.4 -0.59,0.52 -0.14,-0.14 -0.22,-0.27 -0.22,-0.36 -0.14,-0.25 0.34,-1.33 1.44,-3.24 l 2.23,-6.38 c 0.41,-1.2 0.85,-3.2 1.37,-6 l 0.18,-1.1 0.61,-11.27 c 0.02,-0.88 -0.09,-1.74 -0.32,-2.66 l -0.58,-2.37 c -0.93,0.59 -2.09,1.46 -3.51,2.64 l -18.55,16.47 0.05,0.09 -0.74,0.52 -7.87,6.99 -2.98,1.15 -1.62,1.35 -0.88,0.63 c -2.39,1.65 -5.68,3.61 -9.87,5.91 l -4.96,3.6 c -0.72,0.45 -1.73,0.86 -2.97,1.28 l 4.78,-14.74 3.76,-4.53 c 2.91,-3.15 4.69,-5.02 5.3,-5.63 3.25,-3.4 7.25,-7.24 11.96,-11.54 2.39,-2.14 4.14,-3.18 5.23,-3.09 h 0.04 c 0.2,-0.14 1.91,0.76 5.05,2.66 6.62,-7.05 11.79,-13.43 15.53,-19.18 l 0.65,-1.02 10.32,-9.2 c 0.88,-0.43 1.76,0.11 2.64,1.65 l 5.91,13.32 c 1.78,0.63 4.96,-0.31 9.53,-2.79 2.23,1.91 4.66,2.18 7.3,0.9 3.9,-4.82 7.5,-9.2 10.77,-13.12 7.96,-9.56 14.06,-16.47 18.28,-20.71 1.24,-1.49 2.37,-2.88 3.43,-4.17 l 13.45,-0.43 c 0.84,-0.02 1.67,-0.07 2.5,-0.13 0.13,0.18 0.27,0.41 0.43,0.7 0.49,0.88 1.08,2.82 1.74,5.84 l 0.65,1.6 c 0.54,1.33 1.64,3.29 3.33,5.91 0.4,0.41 0.77,0.58 1.15,0.49 l 12.01,-18.43 c 0.13,-0.18 0.25,-0.38 0.38,-0.56 h 0.02 c 11.09,-4.73 19.74,-13.32 24.04,-26.55 1.94,-6.02 2.39,-10.98 1.56,-14.99 0.05,-0.02 0.11,-0.04 0.14,-0.05 l 0.45,-0.07 c 0.43,0.29 1.02,1.04 1.78,2.25 0.45,0.61 1.65,2.89 3.6,6.85 0.27,0.36 0.74,0.58 1.47,0.7 0.14,0.07 0.31,0.27 0.5,0.58 l 7.28,13.03 c 1.46,3.11 2.75,5.99 3.87,8.63 l 11.94,20.21 0.11,0.23 c 0.07,-1.22 0.16,-2.46 0.31,-3.74 0.07,-0.77 0.74,-3.36 2.01,-7.78 0.13,-0.41 0.29,-0.7 0.45,-0.9 0.22,-0.18 0.38,-0.27 0.43,-0.23 h 0.16 c 0.25,0.02 0.45,0.11 0.63,0.25 l 2.28,2.3 c 0.49,0.54 2.18,2.93 5.11,7.17 l 5.34,5.81 c 0.06,0.09 0.13,0.22 0.2,0.33 z"
   id="path18" />
			</g>
		</g>
	</g>
</g>


</svg>
